<mxfile host="app.diagrams.net" agent="Mozilla/5.0 (Windows NT 10.0; Win64; x64) AppleWebKit/537.36 (KHTML, like Gecko) Chrome/136.0.0.0 Safari/537.36 Edg/136.0.0.0" version="27.0.6">
  <diagram name="Página-1" id="A4SRTEeQTM4OLtlpb145">
    <mxGraphModel dx="701" dy="1651" grid="1" gridSize="10" guides="1" tooltips="1" connect="1" arrows="1" fold="1" page="1" pageScale="1" pageWidth="827" pageHeight="1169" math="0" shadow="0" adaptiveColors="none">
      <root>
        <mxCell id="0" />
        <mxCell id="1" parent="0" />
        <mxCell id="opuIpvQJVJ9zl-1Smfu1-19" style="rounded=0;orthogonalLoop=1;jettySize=auto;html=1;endArrow=none;startFill=0;" parent="1" source="opuIpvQJVJ9zl-1Smfu1-8" target="opuIpvQJVJ9zl-1Smfu1-13" edge="1">
          <mxGeometry relative="1" as="geometry" />
        </mxCell>
        <mxCell id="opuIpvQJVJ9zl-1Smfu1-20" style="rounded=0;orthogonalLoop=1;jettySize=auto;html=1;endArrow=none;startFill=0;" parent="1" source="opuIpvQJVJ9zl-1Smfu1-8" target="opuIpvQJVJ9zl-1Smfu1-14" edge="1">
          <mxGeometry relative="1" as="geometry" />
        </mxCell>
        <mxCell id="opuIpvQJVJ9zl-1Smfu1-23" style="rounded=0;orthogonalLoop=1;jettySize=auto;html=1;endArrow=none;startFill=0;" parent="1" source="opuIpvQJVJ9zl-1Smfu1-8" target="opuIpvQJVJ9zl-1Smfu1-15" edge="1">
          <mxGeometry relative="1" as="geometry" />
        </mxCell>
        <mxCell id="opuIpvQJVJ9zl-1Smfu1-24" style="rounded=0;orthogonalLoop=1;jettySize=auto;html=1;endArrow=none;startFill=0;" parent="1" source="opuIpvQJVJ9zl-1Smfu1-8" target="opuIpvQJVJ9zl-1Smfu1-7" edge="1">
          <mxGeometry relative="1" as="geometry" />
        </mxCell>
        <mxCell id="HitS7uksx56XLU1VnVhu-4" style="rounded=0;orthogonalLoop=1;jettySize=auto;html=1;entryX=0;entryY=1;entryDx=0;entryDy=0;endArrow=none;startFill=0;" parent="1" source="opuIpvQJVJ9zl-1Smfu1-8" target="HitS7uksx56XLU1VnVhu-2" edge="1">
          <mxGeometry relative="1" as="geometry" />
        </mxCell>
        <mxCell id="opuIpvQJVJ9zl-1Smfu1-8" value="Paciente" style="shape=umlActor;verticalLabelPosition=bottom;verticalAlign=top;html=1;" parent="1" vertex="1">
          <mxGeometry x="130" y="120" width="30" height="60" as="geometry" />
        </mxCell>
        <mxCell id="opuIpvQJVJ9zl-1Smfu1-26" style="rounded=0;orthogonalLoop=1;jettySize=auto;html=1;entryX=0;entryY=0.5;entryDx=0;entryDy=0;endArrow=none;startFill=0;" parent="1" source="opuIpvQJVJ9zl-1Smfu1-9" target="opuIpvQJVJ9zl-1Smfu1-16" edge="1">
          <mxGeometry relative="1" as="geometry" />
        </mxCell>
        <mxCell id="opuIpvQJVJ9zl-1Smfu1-9" value="Nutricionista" style="shape=umlActor;verticalLabelPosition=bottom;verticalAlign=top;html=1;" parent="1" vertex="1">
          <mxGeometry x="130" y="290" width="30" height="60" as="geometry" />
        </mxCell>
        <mxCell id="opuIpvQJVJ9zl-1Smfu1-25" style="rounded=0;orthogonalLoop=1;jettySize=auto;html=1;entryX=0;entryY=0.5;entryDx=0;entryDy=0;endArrow=none;startFill=0;" parent="1" source="opuIpvQJVJ9zl-1Smfu1-10" target="opuIpvQJVJ9zl-1Smfu1-17" edge="1">
          <mxGeometry relative="1" as="geometry" />
        </mxCell>
        <mxCell id="8mTh-Qdoj8gOLIl4Btk_-3" value="" style="edgeStyle=orthogonalEdgeStyle;rounded=0;orthogonalLoop=1;jettySize=auto;html=1;endArrow=block;endFill=0;" edge="1" parent="1">
          <mxGeometry relative="1" as="geometry">
            <mxPoint x="145" y="450" as="sourcePoint" />
            <mxPoint x="145" y="370" as="targetPoint" />
          </mxGeometry>
        </mxCell>
        <mxCell id="opuIpvQJVJ9zl-1Smfu1-10" value="Médico" style="shape=umlActor;verticalLabelPosition=bottom;verticalAlign=top;html=1;" parent="1" vertex="1">
          <mxGeometry x="130" y="460" width="30" height="60" as="geometry" />
        </mxCell>
        <mxCell id="opuIpvQJVJ9zl-1Smfu1-12" value="Diagrama de Casos de Uso Geral" style="shape=umlFrame;whiteSpace=wrap;html=1;pointerEvents=0;width=230;height=30;" parent="1" vertex="1">
          <mxGeometry x="10" y="-360" width="1110" height="1150" as="geometry" />
        </mxCell>
        <mxCell id="opuIpvQJVJ9zl-1Smfu1-45" value="" style="swimlane;startSize=0;" parent="1" vertex="1">
          <mxGeometry x="270" y="-280" width="600" height="910" as="geometry">
            <mxRectangle x="270" y="-280" width="50" height="40" as="alternateBounds" />
          </mxGeometry>
        </mxCell>
        <mxCell id="opuIpvQJVJ9zl-1Smfu1-7" value="Manter cadastro" style="ellipse;whiteSpace=wrap;html=1;" parent="opuIpvQJVJ9zl-1Smfu1-45" vertex="1">
          <mxGeometry x="20" y="211" width="140" height="70" as="geometry" />
        </mxCell>
        <mxCell id="opuIpvQJVJ9zl-1Smfu1-13" value="Manter consulta" style="ellipse;whiteSpace=wrap;html=1;" parent="opuIpvQJVJ9zl-1Smfu1-45" vertex="1">
          <mxGeometry x="20" y="321" width="140" height="70" as="geometry" />
        </mxCell>
        <mxCell id="opuIpvQJVJ9zl-1Smfu1-27" value="" style="edgeStyle=orthogonalEdgeStyle;rounded=0;orthogonalLoop=1;jettySize=auto;html=1;dashed=1;endArrow=open;endFill=0;exitX=0.5;exitY=0;exitDx=0;exitDy=0;" parent="opuIpvQJVJ9zl-1Smfu1-45" source="opuIpvQJVJ9zl-1Smfu1-13" target="opuIpvQJVJ9zl-1Smfu1-7" edge="1">
          <mxGeometry relative="1" as="geometry" />
        </mxCell>
        <mxCell id="opuIpvQJVJ9zl-1Smfu1-28" value="&amp;lt;&amp;lt;include&amp;gt;&amp;gt;" style="edgeLabel;html=1;align=center;verticalAlign=middle;resizable=0;points=[];" parent="opuIpvQJVJ9zl-1Smfu1-27" vertex="1" connectable="0">
          <mxGeometry x="-0.1" relative="1" as="geometry">
            <mxPoint as="offset" />
          </mxGeometry>
        </mxCell>
        <mxCell id="opuIpvQJVJ9zl-1Smfu1-14" value="Manter alimentos" style="ellipse;whiteSpace=wrap;html=1;" parent="opuIpvQJVJ9zl-1Smfu1-45" vertex="1">
          <mxGeometry x="20" y="431" width="140" height="70" as="geometry" />
        </mxCell>
        <mxCell id="opuIpvQJVJ9zl-1Smfu1-15" value="Manter dados métricos" style="ellipse;whiteSpace=wrap;html=1;" parent="opuIpvQJVJ9zl-1Smfu1-45" vertex="1">
          <mxGeometry x="20" y="541" width="140" height="70" as="geometry" />
        </mxCell>
        <mxCell id="opuIpvQJVJ9zl-1Smfu1-29" value="" style="edgeStyle=orthogonalEdgeStyle;rounded=0;orthogonalLoop=1;jettySize=auto;html=1;dashed=1;endArrow=open;endFill=0;" parent="opuIpvQJVJ9zl-1Smfu1-45" source="opuIpvQJVJ9zl-1Smfu1-14" target="opuIpvQJVJ9zl-1Smfu1-15" edge="1">
          <mxGeometry relative="1" as="geometry" />
        </mxCell>
        <mxCell id="opuIpvQJVJ9zl-1Smfu1-30" value="&amp;lt;&amp;lt;extend&amp;gt;&amp;gt;" style="edgeLabel;html=1;align=center;verticalAlign=middle;resizable=0;points=[];" parent="opuIpvQJVJ9zl-1Smfu1-29" vertex="1" connectable="0">
          <mxGeometry x="-0.1263" relative="1" as="geometry">
            <mxPoint as="offset" />
          </mxGeometry>
        </mxCell>
        <mxCell id="opuIpvQJVJ9zl-1Smfu1-16" value="Manter dietas" style="ellipse;whiteSpace=wrap;html=1;" parent="opuIpvQJVJ9zl-1Smfu1-45" vertex="1">
          <mxGeometry x="20" y="651" width="140" height="70" as="geometry" />
        </mxCell>
        <mxCell id="opuIpvQJVJ9zl-1Smfu1-31" value="" style="edgeStyle=orthogonalEdgeStyle;rounded=0;orthogonalLoop=1;jettySize=auto;html=1;endArrow=open;endFill=0;dashed=1;" parent="opuIpvQJVJ9zl-1Smfu1-45" source="opuIpvQJVJ9zl-1Smfu1-16" target="opuIpvQJVJ9zl-1Smfu1-15" edge="1">
          <mxGeometry relative="1" as="geometry" />
        </mxCell>
        <mxCell id="opuIpvQJVJ9zl-1Smfu1-32" value="&amp;lt;&amp;lt;include&amp;gt;&amp;gt;" style="edgeLabel;html=1;align=center;verticalAlign=middle;resizable=0;points=[];" parent="opuIpvQJVJ9zl-1Smfu1-31" vertex="1" connectable="0">
          <mxGeometry x="-0.0241" relative="1" as="geometry">
            <mxPoint as="offset" />
          </mxGeometry>
        </mxCell>
        <mxCell id="opuIpvQJVJ9zl-1Smfu1-17" value="Manter receitas" style="ellipse;whiteSpace=wrap;html=1;" parent="opuIpvQJVJ9zl-1Smfu1-45" vertex="1">
          <mxGeometry x="20" y="761" width="140" height="70" as="geometry" />
        </mxCell>
        <mxCell id="opuIpvQJVJ9zl-1Smfu1-33" value="" style="edgeStyle=orthogonalEdgeStyle;rounded=0;orthogonalLoop=1;jettySize=auto;html=1;endArrow=open;endFill=0;dashed=1;" parent="opuIpvQJVJ9zl-1Smfu1-45" source="opuIpvQJVJ9zl-1Smfu1-17" target="opuIpvQJVJ9zl-1Smfu1-16" edge="1">
          <mxGeometry relative="1" as="geometry" />
        </mxCell>
        <mxCell id="opuIpvQJVJ9zl-1Smfu1-34" value="&amp;lt;&amp;lt;include&amp;gt;&amp;gt;" style="edgeLabel;html=1;align=center;verticalAlign=middle;resizable=0;points=[];" parent="opuIpvQJVJ9zl-1Smfu1-33" vertex="1" connectable="0">
          <mxGeometry x="-0.0944" y="1" relative="1" as="geometry">
            <mxPoint as="offset" />
          </mxGeometry>
        </mxCell>
        <mxCell id="opuIpvQJVJ9zl-1Smfu1-18" value="Realizar login" style="ellipse;whiteSpace=wrap;html=1;" parent="opuIpvQJVJ9zl-1Smfu1-45" vertex="1">
          <mxGeometry x="417" y="400" width="140" height="70" as="geometry" />
        </mxCell>
        <mxCell id="opuIpvQJVJ9zl-1Smfu1-39" style="rounded=0;orthogonalLoop=1;jettySize=auto;html=1;entryX=0;entryY=0.5;entryDx=0;entryDy=0;dashed=1;endArrow=open;endFill=0;" parent="opuIpvQJVJ9zl-1Smfu1-45" source="opuIpvQJVJ9zl-1Smfu1-14" target="opuIpvQJVJ9zl-1Smfu1-18" edge="1">
          <mxGeometry relative="1" as="geometry" />
        </mxCell>
        <mxCell id="opuIpvQJVJ9zl-1Smfu1-40" value="&amp;lt;&amp;lt;include&amp;gt;&amp;gt;" style="edgeLabel;html=1;align=center;verticalAlign=middle;resizable=0;points=[];" parent="opuIpvQJVJ9zl-1Smfu1-39" vertex="1" connectable="0">
          <mxGeometry x="-0.2095" y="-1" relative="1" as="geometry">
            <mxPoint x="-1" as="offset" />
          </mxGeometry>
        </mxCell>
        <mxCell id="opuIpvQJVJ9zl-1Smfu1-43" style="rounded=0;orthogonalLoop=1;jettySize=auto;html=1;entryX=0.5;entryY=1;entryDx=0;entryDy=0;dashed=1;endArrow=open;endFill=0;" parent="opuIpvQJVJ9zl-1Smfu1-45" source="opuIpvQJVJ9zl-1Smfu1-17" target="opuIpvQJVJ9zl-1Smfu1-18" edge="1">
          <mxGeometry relative="1" as="geometry" />
        </mxCell>
        <mxCell id="opuIpvQJVJ9zl-1Smfu1-44" value="&amp;lt;&amp;lt;include&amp;gt;&amp;gt;" style="edgeLabel;html=1;align=center;verticalAlign=middle;resizable=0;points=[];" parent="opuIpvQJVJ9zl-1Smfu1-43" vertex="1" connectable="0">
          <mxGeometry x="0.0654" y="-2" relative="1" as="geometry">
            <mxPoint as="offset" />
          </mxGeometry>
        </mxCell>
        <mxCell id="opuIpvQJVJ9zl-1Smfu1-41" style="rounded=0;orthogonalLoop=1;jettySize=auto;html=1;entryX=0;entryY=1;entryDx=0;entryDy=0;dashed=1;endArrow=open;endFill=0;" parent="opuIpvQJVJ9zl-1Smfu1-45" source="opuIpvQJVJ9zl-1Smfu1-15" target="opuIpvQJVJ9zl-1Smfu1-18" edge="1">
          <mxGeometry relative="1" as="geometry" />
        </mxCell>
        <mxCell id="opuIpvQJVJ9zl-1Smfu1-42" value="&amp;lt;&amp;lt;include&amp;gt;&amp;gt;" style="edgeLabel;html=1;align=center;verticalAlign=middle;resizable=0;points=[];" parent="opuIpvQJVJ9zl-1Smfu1-41" vertex="1" connectable="0">
          <mxGeometry x="-0.2102" y="2" relative="1" as="geometry">
            <mxPoint x="-1" as="offset" />
          </mxGeometry>
        </mxCell>
        <mxCell id="opuIpvQJVJ9zl-1Smfu1-37" style="rounded=0;orthogonalLoop=1;jettySize=auto;html=1;entryX=0;entryY=0;entryDx=0;entryDy=0;dashed=1;endArrow=open;endFill=0;" parent="opuIpvQJVJ9zl-1Smfu1-45" source="opuIpvQJVJ9zl-1Smfu1-13" target="opuIpvQJVJ9zl-1Smfu1-18" edge="1">
          <mxGeometry relative="1" as="geometry" />
        </mxCell>
        <mxCell id="opuIpvQJVJ9zl-1Smfu1-38" value="&amp;lt;&amp;lt;include&amp;gt;&amp;gt;" style="edgeLabel;html=1;align=center;verticalAlign=middle;resizable=0;points=[];" parent="opuIpvQJVJ9zl-1Smfu1-37" vertex="1" connectable="0">
          <mxGeometry x="-0.1425" relative="1" as="geometry">
            <mxPoint x="1" as="offset" />
          </mxGeometry>
        </mxCell>
        <mxCell id="opuIpvQJVJ9zl-1Smfu1-35" style="rounded=0;orthogonalLoop=1;jettySize=auto;html=1;entryX=0.279;entryY=0.043;entryDx=0;entryDy=0;endArrow=open;endFill=0;dashed=1;entryPerimeter=0;" parent="opuIpvQJVJ9zl-1Smfu1-45" source="opuIpvQJVJ9zl-1Smfu1-7" target="opuIpvQJVJ9zl-1Smfu1-18" edge="1">
          <mxGeometry relative="1" as="geometry" />
        </mxCell>
        <mxCell id="opuIpvQJVJ9zl-1Smfu1-36" value="&amp;lt;&amp;lt;include&amp;gt;&amp;gt;" style="edgeLabel;html=1;align=center;verticalAlign=middle;resizable=0;points=[];" parent="opuIpvQJVJ9zl-1Smfu1-35" vertex="1" connectable="0">
          <mxGeometry x="0.0734" y="-1" relative="1" as="geometry">
            <mxPoint as="offset" />
          </mxGeometry>
        </mxCell>
        <mxCell id="HitS7uksx56XLU1VnVhu-2" value="Inserir dados antropométricos" style="ellipse;whiteSpace=wrap;html=1;" parent="opuIpvQJVJ9zl-1Smfu1-45" vertex="1">
          <mxGeometry x="19" y="26" width="140" height="70" as="geometry" />
        </mxCell>
        <mxCell id="HitS7uksx56XLU1VnVhu-5" value="Realizar cálculos antropométricos" style="ellipse;whiteSpace=wrap;html=1;" parent="opuIpvQJVJ9zl-1Smfu1-45" vertex="1">
          <mxGeometry x="318" y="28" width="140" height="70" as="geometry" />
        </mxCell>
        <mxCell id="HitS7uksx56XLU1VnVhu-6" value="" style="edgeStyle=orthogonalEdgeStyle;rounded=0;orthogonalLoop=1;jettySize=auto;html=1;dashed=1;endArrow=open;endFill=0;entryX=0;entryY=0.5;entryDx=0;entryDy=0;exitX=1;exitY=0.5;exitDx=0;exitDy=0;" parent="opuIpvQJVJ9zl-1Smfu1-45" source="HitS7uksx56XLU1VnVhu-2" target="HitS7uksx56XLU1VnVhu-5" edge="1">
          <mxGeometry relative="1" as="geometry">
            <mxPoint x="100" y="96" as="sourcePoint" />
            <mxPoint x="100" y="136" as="targetPoint" />
          </mxGeometry>
        </mxCell>
        <mxCell id="HitS7uksx56XLU1VnVhu-7" value="&amp;lt;&amp;lt;extend&amp;gt;&amp;gt;" style="edgeLabel;html=1;align=center;verticalAlign=middle;resizable=0;points=[];" parent="HitS7uksx56XLU1Vhu-6" vertex="1" connectable="0">
          <mxGeometry x="-0.1263" relative="1" as="geometry">
            <mxPoint as="offset" />
          </mxGeometry>
        </mxCell>
        <mxCell id="HitS7uksx56XLU1VnVhu-8" value="Salvar cálculos e dados antropométricos" style="ellipse;whiteSpace=wrap;html=1;" parent="opuIpvQJVJ9zl-1Smfu1-45" vertex="1">
          <mxGeometry x="318" y="154" width="140" height="70" as="geometry" />
        </mxCell>
        <mxCell id="8mTh-Qdoj8gOLIl4Btk_-5" value="" style="edgeStyle=orthogonalEdgeStyle;rounded=0;orthogonalLoop=1;jettySize=auto;html=1;dashed=1;endArrow=open;endFill=0;entryX=0.5;entryY=0;entryDx=0;entryDy=0;exitX=0.5;exitY=1;exitDx=0;exitDy=0;" edge="1" parent="opuIpvQJVJ9zl-1Smfu1-45" source="HitS7uksx56XLU1VnVhu-5" target="HitS7uksx56XLU1VnVhu-8">
          <mxGeometry relative="1" as="geometry">
            <mxPoint x="169" y="71" as="sourcePoint" />
            <mxPoint x="328" y="73" as="targetPoint" />
          </mxGeometry>
        </mxCell>
        <mxCell id="8mTh-Qdoj8gOLIl4Btk_-6" value="&amp;lt;&amp;lt;extend&amp;gt;&amp;gt;" style="edgeLabel;html=1;align=center;verticalAlign=middle;resizable=0;points=[];" vertex="1" connectable="0" parent="8mTh-Qdoj8gOLIl4Btk_-5">
          <mxGeometry x="-0.1263" relative="1" as="geometry">
            <mxPoint as="offset" />
          </mxGeometry>
        </mxCell>
        <mxCell id="8mTh-Qdoj8gOLIl4Btk_-7" value="" style="rounded=0;orthogonalLoop=1;jettySize=auto;html=1;dashed=1;endArrow=open;endFill=0;exitX=0.5;exitY=1;exitDx=0;exitDy=0;entryX=0.5;entryY=0;entryDx=0;entryDy=0;" edge="1" parent="opuIpvQJVJ9zl-1Smfu1-45" source="HitS7uksx56XLU1VnVhu-8" target="opuIpvQJVJ9zl-1Smfu1-18">
          <mxGeometry relative="1" as="geometry">
            <mxPoint x="398" y="108" as="sourcePoint" />
            <mxPoint x="398" y="164" as="targetPoint" />
          </mxGeometry>
        </mxCell>
        <mxCell id="8mTh-Qdoj8gOLIl4Btk_-8" value="&amp;lt;&amp;lt;include&lt;span style=&quot;background-color: light-dark(#ffffff, var(--ge-dark-color, #121212)); color: light-dark(rgb(0, 0, 0), rgb(255, 255, 255));&quot;&gt;&amp;gt;&amp;gt;&lt;/span&gt;" style="edgeLabel;html=1;align=center;verticalAlign=middle;resizable=0;points=[];" vertex="1" connectable="0" parent="8mTh-Qdoj8gOLIl4Btk_-7">
          <mxGeometry x="-0.1263" relative="1" as="geometry">
            <mxPoint as="offset" />
          </mxGeometry>
        </mxCell>
        <mxCell id="8mTh-Qdoj8gOLIl4Btk_-4" value="" style="edgeStyle=orthogonalEdgeStyle;rounded=0;orthogonalLoop=1;jettySize=auto;html=1;endArrow=block;endFill=0;" edge="1" parent="1">
          <mxGeometry relative="1" as="geometry">
            <mxPoint x="145" y="283" as="sourcePoint" />
            <mxPoint x="145" y="203" as="targetPoint" />
          </mxGeometry>
        </mxCell>
        <mxCell id="exportar-relatorio" value="Exportar relatório" style="ellipse;whiteSpace=wrap;html=1;" parent="opuIpvQJVJ9zl-1Smfu1-45" vertex="1">
          <mxGeometry x="200" y="850" width="140" height="70" as="geometry" />
        </mxCell>
        <mxCell id="edge-nutri-exportar" style="rounded=0;orthogonalLoop=1;jettySize=auto;html=1;endArrow=none;startFill=0;" parent="1" source="opuIpvQJVJ9zl-1Smfu1-9" target="exportar-relatorio" edge="1">
          <mxGeometry relative="1" as="geometry" />
        </mxCell>
      </root>
    </mxGraphModel>
  </diagram>
</mxfile>
